HIERARCHY
ROOT Hips
{
	OFFSET 0.000000 0.000000 0.000000 
	CHANNELS 6 Xposition Yposition Zposition Zrotation Yrotation Xrotation
	JOINT LeftUpLeg
	{
		OFFSET 1.363060 -1.794630 0.839290 
		CHANNELS 3 Zrotation Yrotation Xrotation
		JOINT LeftLeg
		{
			OFFSET 2.448110 -6.726130 0.000000 
			CHANNELS 3 Zrotation Yrotation Xrotation
			JOINT LeftFoot
			{
				OFFSET 2.562200 -7.039590 0.000000 
				CHANNELS 3 Zrotation Yrotation Xrotation
				JOINT LeftToeBase
				{
					OFFSET 0.157640 -0.433110 2.322550 
					CHANNELS 3 Zrotation Yrotation Xrotation
					End Site
					{
						OFFSET 0.000000 0.000000 0.000000 
					}
				}
			}
		}
	}
	JOINT RightUpLeg
	{
		OFFSET -1.305520 -1.794630 0.839290 
		CHANNELS 3 Zrotation Yrotation Xrotation
		JOINT RightLeg
		{
			OFFSET -2.542530 -6.985550 0.000000 
			CHANNELS 3 Zrotation Yrotation Xrotation
			JOINT RightFoot
			{
				OFFSET -2.568260 -7.056230 0.000000 
				CHANNELS 3 Zrotation Yrotation Xrotation
				JOINT RightToeBase
				{
					OFFSET -0.164730 -0.452590 2.363150 
					CHANNELS 3 Zrotation Yrotation Xrotation
					End Site
					{
						OFFSET 0.000000 0.000000 0.000000 
					}
				}
			}
		}
	}
	JOINT Spine
	{
		OFFSET 0.028270 2.035590 -0.193380 
		CHANNELS 3 Zrotation Yrotation Xrotation
		JOINT Spine1
		{
			OFFSET 0.056720 2.048850 -0.042750 
			CHANNELS 3 Zrotation Yrotation Xrotation
			JOINT Neck1
			{
				OFFSET -0.054170 1.746240 0.172020 
				CHANNELS 3 Zrotation Yrotation Xrotation
				JOINT Head
				{
					OFFSET 0.104070 1.761360 -0.123970 
					CHANNELS 3 Zrotation Yrotation Xrotation
					End Site
					{
						OFFSET 0.000000 0.000000 0.000000 
					}
				}
			}
			JOINT LeftArm
			{
				OFFSET 3.362410 1.200890 -0.311210 
				CHANNELS 3 Zrotation Yrotation Xrotation
				JOINT LeftForeArm
				{
					OFFSET 4.983000 -0.000000 -0.000000 
					CHANNELS 3 Zrotation Yrotation Xrotation
					JOINT LeftHand
					{
						OFFSET 3.483560 -0.000000 -0.000000 
						CHANNELS 3 Zrotation Yrotation Xrotation
						JOINT LeftHandIndex1
						{
							OFFSET 0.715260 -0.000000 -0.000000 
							CHANNELS 3 Zrotation Yrotation Xrotation
							End Site
							{
								OFFSET 0.000000 0.000000 0.000000 
							}
						}
					}
				}
			}
			JOINT RightArm
			{
				OFFSET -3.136600 1.374050 -0.404650 
				CHANNELS 3 Zrotation Yrotation Xrotation
				JOINT RightForeArm
				{
					OFFSET -5.241900 -0.000000 -0.000000 
					CHANNELS 3 Zrotation Yrotation Xrotation
					JOINT RightHand
					{
						OFFSET -3.444170 -0.000000 -0.000000 
						CHANNELS 3 Zrotation Yrotation Xrotation
						JOINT RightHandIndex1
						{
							OFFSET -0.622530 -0.000000 -0.000000 
							CHANNELS 3 Zrotation Yrotation Xrotation
							End Site
							{
								OFFSET 0.000000 0.000000 0.000000 
							}
						}
					}
				}
			}
		}
	}
}
MOTION
Frames: 17
Frame Time: 0.041667
0.352327 18.080740 3.825062 -60.073875 -80.901194 65.920878 -3.767100 -7.185093 -25.593367 7.798166 16.724276 52.414740 -0.405347 3.811955 3.119044 0.679900 -5.272100 -14.686400 33.395188 6.750696 -4.987247 -0.056328 -5.477670 13.805170 1.823927 -11.799475 -3.771821 -0.832400 -5.820500 16.264500 2.020716 0.323513 -4.621396 6.058922 -0.205433 -0.934397 8.857612 -8.908909 2.829581 3.517500 -4.272800 4.562600 -88.439175 12.027105 -12.006451 4.107531 -18.123036 -1.378435 1.591373 2.189783 36.855616 -7.125000 0.000000 0.000000 83.793444 1.110682 0.413872 -5.899421 14.424743 -0.610675 -0.479910 0.608527 24.930380 7.125000 0.000000 0.000000 
0.233250 18.073135 3.827164 -61.800933 -80.919409 67.614297 -3.523308 -7.307956 -26.073026 7.442756 16.465089 51.188638 -0.431848 3.916628 2.610419 0.691400 -5.315800 -14.811400 33.617426 6.687779 -4.496786 -0.055721 -5.468832 13.793698 1.775078 -11.551200 -4.044790 -0.807500 -5.734800 16.016800 1.988804 0.471474 -4.611708 5.926402 -0.134319 -0.909898 9.017413 -8.976716 2.739697 3.578900 -4.302300 4.527500 -88.504628 12.276807 -11.842711 4.469892 -18.656079 -1.456613 1.568187 2.248913 34.796200 -7.125000 0.000000 0.000000 83.701610 1.826076 1.739704 -6.068797 14.740471 -0.658775 -0.484857 0.597704 24.066661 7.125000 0.000000 0.000000 
0.114874 18.065230 3.829565 -63.374776 -80.918816 69.172954 -3.276344 -7.456177 -26.517818 7.059349 16.173225 49.844952 -0.463295 4.060022 2.185595 0.696000 -5.333100 -14.861100 33.824944 6.611391 -4.034379 -0.054774 -5.458552 13.778166 1.727567 -11.310998 -4.314772 -0.783000 -5.649100 15.769600 1.959498 0.604505 -4.606684 5.803774 -0.069687 -0.891380 9.156124 -9.039739 2.653581 3.634200 -4.330800 4.491600 -88.602945 12.470806 -11.826672 4.787918 -19.114655 -1.528839 1.565033 2.288833 33.087603 -7.125000 0.000000 0.000000 83.607200 2.548932 3.063421 -6.255963 15.085879 -0.712528 -0.490253 0.586155 23.159989 7.125000 0.000000 0.000000 
-0.002802 18.057125 3.832167 -64.800049 -80.903352 70.605939 -3.024658 -7.631105 -26.932256 6.652234 15.848348 48.393111 -0.500043 4.239802 1.838090 0.700500 -5.349900 -14.909400 34.016774 6.528527 -3.608172 -0.054204 -5.449628 13.766570 1.680754 -11.076436 -4.584141 -0.758200 -5.561000 15.515700 1.933343 0.720816 -4.605285 5.694245 -0.012144 -0.875405 9.265844 -9.102181 2.545506 3.681500 -4.362200 4.440300 -88.739789 12.599420 -11.966203 5.050688 -19.486329 -1.592572 1.583849 2.309227 31.748663 -7.125000 0.000000 0.000000 83.509021 3.270311 4.418544 -6.469336 15.476756 -0.774649 -0.496072 0.573922 22.169450 7.125000 0.000000 0.000000 
-0.120478 18.048819 3.835069 -66.111512 -80.875834 71.942604 -2.769125 -7.824201 -27.301562 6.220935 15.485806 46.823929 -0.542673 4.455322 1.559891 0.707800 -5.376900 -14.986900 34.193783 6.431260 -3.210400 -0.053676 -5.441148 13.756002 1.632851 -10.838263 -4.848208 -0.733200 -5.470500 15.255500 1.909970 0.824104 -4.608358 5.595073 0.039579 -0.863551 9.349121 -9.158491 2.461902 3.720900 -4.391200 4.399500 -88.903133 12.672648 -12.206615 5.255107 -19.770741 -1.645697 1.621579 2.309422 30.722596 -7.125000 0.000000 0.000000 83.411222 3.985353 5.775035 -6.711511 15.915884 -0.845973 -0.502714 0.560715 21.117807 7.125000 0.000000 0.000000 
-0.238454 18.040114 3.838571 -67.358882 -80.842126 73.229528 -2.513293 -8.025408 -27.618744 5.767029 15.082492 45.135252 -0.589984 4.697349 1.352286 0.722400 -5.431000 -15.142200 34.354843 6.322995 -2.835253 -0.053457 -5.433276 13.747383 1.581734 -10.586117 -5.109094 -0.706300 -5.371500 14.971200 1.888551 0.917574 -4.615319 5.505423 0.087292 -0.854820 9.400425 -9.208991 2.395041 3.750000 -4.418700 4.363200 -89.096613 12.679475 -12.590345 5.392934 -19.956032 -1.686724 1.682076 2.297575 30.035655 -7.125000 0.000000 0.000000 83.314086 4.674802 7.156516 -6.993617 16.422949 -0.930613 -0.510021 0.546575 19.976751 7.125000 0.000000 0.000000 
-0.357130 18.031108 3.842774 -68.565751 -80.805996 74.487391 -2.260485 -8.226768 -27.875918 5.292491 14.634337 43.323166 -0.642202 4.966106 1.227097 0.737800 -5.487500 -15.304500 34.498053 6.202274 -2.476062 -0.053089 -5.424892 13.737376 1.527993 -10.322511 -5.361999 -0.680600 -5.274800 14.694100 1.868368 1.003398 -4.624968 5.423606 0.131628 -0.845627 9.419293 -9.252688 2.358853 3.767800 -4.443200 4.340900 -89.315981 12.622008 -13.081558 5.468020 -20.050416 -1.715631 1.761671 2.275040 29.641355 -7.125000 0.000000 0.000000 83.222148 5.342799 8.522583 -7.313594 16.991835 -1.029646 -0.517193 0.531750 18.786201 7.125000 0.000000 0.000000 
-0.476607 18.021602 3.847577 -69.775829 -80.768090 75.757396 -2.009518 -8.416461 -28.070309 4.800547 14.137900 41.386049 -0.700557 5.267918 1.203087 0.756600 -5.555200 -15.499100 34.627546 6.076474 -2.126596 -0.052799 -5.416321 13.727007 1.472191 -10.050895 -5.604546 -0.655400 -5.178100 14.417300 1.848491 1.087132 -4.640308 5.346572 0.175343 -0.846471 9.406999 -9.289383 2.354383 3.774000 -4.464900 4.329200 -89.553458 12.518062 -13.645294 5.488356 -20.066035 -1.733544 1.857059 2.244989 29.502956 -7.125000 0.000000 0.000000 83.139554 5.963955 9.883487 -7.683102 17.640381 -1.147569 -0.524536 0.516057 17.536664 7.125000 0.000000 0.000000 
-0.596884 18.011595 3.852880 -71.015448 -80.733140 77.064337 -1.764263 -8.587912 -28.196834 4.293896 13.588507 39.318087 -0.766690 5.612052 1.300448 0.774300 -5.618600 -15.681700 34.740719 5.950436 -1.779232 -0.051978 -5.405419 13.709730 1.415344 -9.774967 -5.834614 -0.631200 -5.083600 14.147200 1.827896 1.169169 -4.659661 5.271929 0.218453 -0.854850 9.373140 -9.316966 2.377501 3.772500 -4.482200 4.329400 -89.802734 12.381692 -14.218468 5.471427 -20.031733 -1.743379 1.960848 2.212741 29.537922 -7.125000 0.000000 0.000000 83.068684 6.543215 11.254761 -8.104758 18.370305 -1.286939 -0.531300 0.499874 16.195182 7.125000 0.000000 0.000000 
-0.717562 18.001089 3.858184 -72.246831 -80.696944 78.378445 -1.517410 -8.745674 -28.272697 3.780707 12.987353 37.133967 -0.838742 5.990725 1.529572 0.789400 -5.671700 -15.834900 34.843002 5.834085 -1.445666 -0.051241 -5.394977 13.693188 1.359313 -9.503909 -6.058146 -0.608100 -4.991300 13.883900 1.807441 1.246007 -4.685024 5.202580 0.259109 -0.875380 9.321922 -9.338601 2.417630 3.765200 -4.497000 4.335100 -90.063759 12.214323 -14.802948 5.422713 -19.952304 -1.745512 2.066772 2.176990 29.724477 -7.125000 0.000000 0.000000 83.012346 7.069658 12.625464 -8.589756 19.195957 -1.453762 -0.537424 0.483118 14.802749 7.125000 0.000000 0.000000 
-0.838840 17.989881 3.863587 -73.474794 -80.660613 79.702625 -1.271616 -8.886899 -28.293248 3.266175 12.332919 34.837921 -0.913969 6.393134 1.871257 0.796700 -5.697200 -15.908300 34.934028 5.724994 -1.119515 -0.050116 -5.382913 13.671519 1.304030 -9.238396 -6.275930 -0.585100 -4.897500 13.616400 1.785794 1.321941 -4.716211 5.134832 0.299228 -0.907109 9.262575 -9.358876 2.481576 3.754500 -4.511000 4.351100 -90.322669 12.031215 -15.336621 5.357231 -19.852280 -1.742726 2.167739 2.143694 29.986319 -7.125000 0.000000 0.000000 82.974688 7.540625 13.960078 -9.141734 20.118208 -1.651849 -0.542841 0.465590 13.400355 7.125000 0.000000 0.000000 
-0.960418 17.978274 3.868891 -74.720576 -80.623340 81.060792 -1.021838 -9.012548 -28.264665 2.757898 11.626886 32.444039 -0.986957 6.794115 2.297494 0.794600 -5.689900 -15.887300 35.016715 5.632673 -0.803886 -0.048833 -5.370655 13.649042 1.250579 -8.982533 -6.488716 -0.561600 -4.799900 13.338600 1.763457 1.394432 -4.751251 5.069315 0.337909 -0.945707 9.196062 -9.382367 2.536187 3.742400 -4.527800 4.360300 -90.586708 11.836476 -15.803710 5.290377 -19.755915 -1.738430 2.258519 2.117959 30.277131 -7.125000 0.000000 0.000000 82.955153 7.959392 15.264393 -9.766907 21.140897 -1.886940 -0.547064 0.447605 11.980759 7.125000 0.000000 0.000000 
-1.082997 17.966066 3.874194 -75.996374 -80.585256 82.460350 -0.770930 -9.126750 -28.179837 2.263482 10.872662 29.969825 -1.053075 7.170016 2.758941 0.783200 -5.649700 -15.771400 35.089536 5.541247 -0.494723 -0.047312 -5.357299 13.622795 1.197173 -8.728039 -6.689949 -0.534800 -4.685700 13.014300 1.740762 1.465047 -4.788620 5.006321 0.375506 -0.984621 9.121130 -9.407437 2.612455 3.726000 -4.544900 4.381800 -90.848669 11.641654 -16.124121 5.234363 -19.688656 -1.735606 2.334367 2.104836 30.495730 -7.125000 0.000000 0.000000 82.955777 8.332822 16.498220 -10.466913 22.258286 -2.162410 -0.550527 0.428408 10.581484 7.125000 0.000000 0.000000 
-1.206777 17.953058 3.879898 -77.315088 -80.546545 83.911534 -0.521413 -9.240048 -28.037327 1.791736 10.077405 27.441664 -1.109928 7.504705 3.208779 0.768900 -5.599300 -15.626200 35.150162 5.445039 -0.188689 -0.045778 -5.343185 13.594561 1.142360 -8.466634 -6.880569 -0.505400 -4.557100 12.649500 1.716124 1.535572 -4.827706 4.938979 0.412837 -1.021336 9.034798 -9.437164 2.708742 3.703400 -4.563900 4.413000 -91.107598 11.448609 -16.311487 5.192457 -19.653187 -1.734645 2.393699 2.103742 30.638731 -7.125000 0.000000 0.000000 82.980780 8.658794 17.646003 -11.242799 23.464438 -2.482643 -0.552691 0.408390 9.198145 7.125000 0.000000 0.000000 
-1.331557 17.939249 3.886002 -78.665733 -80.504078 85.403024 -0.271775 -9.359256 -27.845855 1.352121 9.252556 24.893471 -1.158616 7.800238 3.618882 0.758900 -5.563500 -15.523000 35.199473 5.338195 0.109972 -0.044342 -5.329178 13.566482 1.085217 -8.193650 -7.064243 -0.473700 -4.413900 12.244000 1.691136 1.602214 -4.866766 4.868907 0.448087 -1.052389 8.944824 -9.467822 2.821600 3.678500 -4.582500 4.456500 -91.364744 11.264412 -16.299254 5.178195 -19.676718 -1.739113 2.432940 2.120720 30.624769 -7.125000 0.000000 0.000000 83.028564 8.951844 18.706116 -12.092588 24.747091 -2.850865 -0.553066 0.387872 7.809016 7.125000 0.000000 0.000000 
-1.457438 17.924539 3.892806 -80.066397 -80.454330 86.952443 -0.017034 -9.493282 -27.614139 0.953194 8.412049 22.362627 -1.204240 8.073202 3.964554 0.756700 -5.555700 -15.500500 35.240747 5.225079 0.399396 -0.043689 -5.318222 13.547108 1.024933 -7.905285 -7.243100 -0.441000 -4.260900 11.811900 1.665775 1.667694 -4.905486 4.793844 0.482510 -1.076543 8.850130 -9.503001 2.946865 3.650500 -4.602800 4.509800 -91.619802 11.084865 -16.095217 5.190007 -19.755832 -1.748451 2.451652 2.152181 30.461314 -7.125000 0.000000 0.000000 83.100018 9.209548 19.680296 -13.019961 26.102170 -3.271521 -0.552019 0.366005 6.383950 7.125000 0.000000 0.000000 
-1.584620 17.909029 3.900311 -81.500931 -80.403057 88.539727 0.235224 -9.656581 -27.342902 0.600299 7.570115 19.882455 -1.253286 8.350421 4.241480 0.764900 -5.584900 -15.584500 35.265633 5.101795 0.684963 -0.043749 -5.309701 13.534927 0.961642 -7.601095 -7.413963 -0.407600 -4.098400 11.353700 1.638921 1.730824 -4.942894 4.711420 0.515585 -1.092440 8.762486 -9.543570 3.080007 3.625300 -4.624900 4.571400 -91.865317 10.917837 -15.670574 5.231997 -19.897764 -1.763350 2.447774 2.199155 30.129878 -7.125000 0.000000 0.000000 83.194049 9.433715 20.591242 -14.024944 27.519525 -3.747654 -0.549371 0.342826 4.854102 7.125000 0.000000 0.000000 
